<svg width="45" height="39" viewBox="0 0 45 39" fill="none" xmlns="http://www.w3.org/2000/svg">
<path d="M40.5735 6.86041L39.2526 4.55767C38.014 2.39448 35.6952 0.940729 33.0712 0.673239L27.3594 0.0277719C25.974 -0.117603 24.5886 0.312708 23.5554 1.2024C22.6161 2.01069 22.0643 3.10391 21.9939 4.28436L21.1896 8.6747C21.1779 8.72703 21.172 8.77937 21.172 8.83752C21.1368 9.76211 21.5125 10.6634 22.2052 11.3089C22.9566 12.0067 23.9957 12.344 25.0464 12.2393C25.1638 12.2277 25.2754 12.1986 25.3869 12.1521L29.4022 10.4657C29.4022 10.4657 29.4609 10.4657 29.4903 10.4657C30.4648 10.4657 31.3336 11.0472 31.5684 11.8904C32.2728 14.4316 32.3785 17.8741 31.9382 20.8455C30.1888 19.1999 28.2634 18.2869 26.1912 18.1299C23.391 17.9148 21.037 19.1534 19.7397 20.0489C17.9199 17.845 14.6912 17.217 10.6524 18.3334C9.02633 18.7754 7.91684 20.3164 8.00489 21.9911L8.62714 32.964C8.72107 34.6504 9.82469 36.0925 11.4273 36.6275C16.7634 38.4127 22.3813 39 27.2243 39C31.5566 39 35.2725 38.529 37.6207 38.0231C39.8984 37.5346 41.7827 36.0576 42.7924 33.9816C46.8958 25.5441 44.7707 13.9431 40.5676 6.86623L40.5735 6.86041ZM40.685 32.9698C39.9923 34.4003 38.6949 35.4121 37.1276 35.7494C32.3902 36.7729 21.806 37.6393 12.1846 34.4178C11.5036 34.191 11.0164 33.5513 10.9811 32.8303L10.3589 21.8573C10.3237 21.2642 10.7111 20.7176 11.2805 20.5606C12.2433 20.2931 13.3234 20.0896 14.3566 20.0896C16.0179 20.0896 17.5794 20.6187 18.4012 22.2528C18.5656 22.5842 18.8826 22.8168 19.2466 22.8808C19.6164 22.9447 19.9921 22.8343 20.2621 22.5784C20.2856 22.5551 22.8568 20.1884 26.0268 20.4327C27.917 20.5839 29.6957 21.6422 31.3218 23.5844C31.2044 23.9507 31.0811 24.2938 30.9461 24.6195C30.6937 25.2126 30.9755 25.893 31.5742 26.143C32.173 26.393 32.8598 26.1139 33.1123 25.5208C34.7031 21.7759 35.0201 15.5132 33.8343 11.2566C33.2708 9.23294 31.2455 7.93038 29.0089 8.15135C28.8915 8.16298 28.78 8.19205 28.6684 8.23857L24.6649 9.91911C24.342 9.91911 24.0367 9.80281 23.8195 9.59929C23.6845 9.47717 23.5319 9.27365 23.526 8.98289L24.3244 4.61582C24.3361 4.56348 24.342 4.51115 24.342 4.453C24.3655 3.88313 24.6355 3.35396 25.1051 2.95272C25.6511 2.48171 26.3907 2.25492 27.1187 2.33633L32.8246 2.9818C34.709 3.17369 36.3527 4.19132 37.2156 5.70323L38.5482 8.02342C42.4461 14.5886 44.4361 25.2649 40.6909 32.9698H40.685ZM31.0048 28.7307C31.2866 29.3064 31.0459 30.0042 30.4648 30.2833C30.3415 30.3414 28.4865 31.2137 25.7568 31.2137C24.1189 31.2137 22.17 30.8997 20.086 29.9111C19.499 29.632 19.2524 28.94 19.5342 28.3585C19.816 27.777 20.5146 27.5328 21.1016 27.8119C25.6511 29.9635 29.4022 28.2073 29.4433 28.1899C30.0245 27.9108 30.7289 28.1492 31.0107 28.7249L31.0048 28.7307Z" fill="#012D5B"/>
<rect y="17" width="12" height="22" rx="3" fill="#012D5B"/>
<path d="M33.5 2H25.5L24 4V7V10.5H26.5L30.5 8L33.5 2Z" fill="#012D5B" stroke="#012D5B"/>
</svg>
