<svg width="78" height="78" viewBox="0 0 78 78" fill="none" xmlns="http://www.w3.org/2000/svg">
<path d="M75.5564 4.72509L75.4808 2.52525L73.2725 2.44116C73.2725 2.44116 73.153 2.4375 72.9251 2.4375C69.7113 2.4375 52.9011 3.21506 37.557 18.5542C33.4486 22.659 29.8496 26.9624 26.9356 31.1756C15.7755 26.6565 2.4375 39.9847 2.4375 39.9847C2.4375 39.9847 12.6933 35.713 20.096 44.577C19.55 46.4551 19.305 48.0809 19.2782 49.491L17.2599 51.5105C16.6688 52.1016 16.7164 53.1107 17.3075 53.703L17.7937 54.1881L16.4019 55.5811C16.0619 55.9211 15.9595 56.4403 16.2033 56.8254C15.2197 56.6365 13.7962 57.2886 10.8786 58.372C7.18941 59.7407 6.50934 62.8534 6.50934 62.8534C6.50934 62.8534 7.69884 63.4372 9.44166 63.6139C7.21378 66.8363 7.72444 70.2536 7.72444 70.2536C7.72444 70.2536 11.1442 70.7631 14.3654 68.5376C14.5421 70.2804 15.1259 71.4687 15.1259 71.4687C15.1259 71.4687 18.2422 70.7874 19.6097 67.0971C20.709 64.1355 21.3647 62.7132 21.1465 61.7309C21.5475 61.9308 22.0886 61.893 22.4006 61.581L23.7937 60.1867L24.3774 60.7705C24.971 61.3616 25.8826 61.3141 26.4725 60.7206L28.52 58.6767C30.0032 58.6462 31.6339 58.3684 33.3803 57.8626C42.3235 65.2665 38.0274 75.5625 38.0274 75.5625C38.0274 75.5625 51.3959 62.1989 46.8268 51.0315C50.9986 48.1553 55.2971 44.5636 59.4372 40.4272C76.0183 23.8546 75.5844 5.49778 75.5564 4.72509ZM19.5061 63.9393C18.7468 65.9868 17.0211 66.3646 17.0211 66.3646C17.0211 66.3646 16.5738 65.4396 16.5774 64.1794C14.7152 65.6577 12.6128 65.3652 12.6128 65.3652C12.6128 65.3652 12.3216 63.2629 13.7999 61.4006C12.5373 61.4031 11.6135 60.957 11.6135 60.957C11.6135 60.957 11.9913 59.2313 14.0388 58.472C15.6134 57.8882 16.3958 57.5408 16.9394 57.6188L20.3629 61.0411C20.4397 61.5834 20.0911 62.3659 19.5061 63.9393ZM28.225 56.327C27.5038 56.3267 26.7855 56.235 26.0873 56.054L21.8948 51.8615C20.2471 45.0974 27.3731 32.0799 39.2303 20.2264C45.6592 13.7999 52.388 10.051 58.1466 7.86094L70.1342 19.8486C67.9441 25.6035 64.1952 32.3286 57.7651 38.755C47.045 49.4703 35.3669 56.327 28.225 56.327Z" fill="#012D5B"/>
<path d="M51.506 20.5723C49.9372 20.5723 48.4326 21.1955 47.3233 22.3048C46.214 23.4141 45.5908 24.9187 45.5908 26.4875C45.5908 28.0563 46.214 29.5608 47.3233 30.6702C48.4326 31.7795 49.9372 32.4027 51.506 32.4027C53.0748 32.4024 54.5792 31.7792 55.6887 30.6701C56.7983 29.5611 57.422 28.0569 57.423 26.4881C57.4224 24.9191 56.7987 23.4146 55.6892 22.3053C54.5796 21.1959 53.075 20.5726 51.506 20.5723ZM51.506 30.4295C50.9882 30.4297 50.4755 30.3279 49.9971 30.1299C49.5187 29.9319 49.084 29.6416 48.7177 29.2756C48.3515 28.9096 48.061 28.4751 47.8627 27.9968C47.6644 27.5185 47.5623 27.0058 47.5621 26.4881C47.5619 25.9703 47.6638 25.4576 47.8618 24.9792C48.0597 24.5008 48.35 24.0661 48.716 23.6998C49.082 23.3336 49.5166 23.0431 49.9948 22.8448C50.4731 22.6465 50.9858 22.5444 51.5035 22.5442C52.5492 22.5439 53.5522 22.959 54.2918 23.6981C55.0314 24.4373 55.4471 25.44 55.4474 26.4856C55.4477 27.5313 55.0327 28.5343 54.2935 29.2739C53.5543 30.0135 52.5516 30.4292 51.506 30.4295ZM39.6719 32.4002C38.103 32.4009 36.5986 33.0243 35.4891 34.1336C34.3796 35.2428 33.7559 36.7472 33.7549 38.316C33.7863 39.8642 34.4234 41.3384 35.5294 42.4222C36.6354 43.506 38.1222 44.113 39.6707 44.113C41.2192 44.113 42.706 43.506 43.812 42.4222C44.918 41.3384 45.5551 39.8642 45.5865 38.316C45.5862 36.7474 44.963 35.243 43.8539 34.1337C42.7448 33.0244 41.2406 32.4009 39.6719 32.4002ZM39.6707 42.2575C39.1472 42.2667 38.6271 42.1715 38.1408 41.9776C37.6544 41.7836 37.2116 41.4947 36.8381 41.1277C36.4646 40.7608 36.168 40.3231 35.9655 39.8402C35.763 39.3574 35.6587 38.839 35.6587 38.3154C35.6587 37.7918 35.763 37.2735 35.9655 36.7907C36.168 36.3078 36.4646 35.8701 36.8381 35.5032C37.2116 35.1362 37.6544 34.8473 38.1408 34.6533C38.6271 34.4593 39.1472 34.3642 39.6707 34.3734C40.1887 34.3731 40.7017 34.4749 41.1803 34.6729C41.659 34.871 42.0939 35.1615 42.4602 35.5278C42.8264 35.8941 43.1169 36.329 43.315 36.8076C43.5131 37.2863 43.6149 37.7993 43.6146 38.3173C43.6151 38.8351 43.5133 39.348 43.3153 39.8265C43.1172 40.305 42.8267 40.7398 42.4603 41.1058C42.0939 41.4718 41.6589 41.762 41.1802 41.9596C40.7016 42.1572 40.1886 42.2584 39.6707 42.2575Z" fill="#012D5B"/>
<path d="M57.1657 10.6594C57.7102 10.6594 58.1516 10.218 58.1516 9.67347C58.1516 9.12893 57.7102 8.6875 57.1657 8.6875C56.6211 8.6875 56.1797 9.12893 56.1797 9.67347C56.1797 10.218 56.6211 10.6594 57.1657 10.6594Z" fill="#012D5B"/>
<path d="M59.9564 13.448C60.5003 13.448 60.9412 13.0071 60.9412 12.4633C60.9412 11.9194 60.5003 11.4785 59.9564 11.4785C59.4126 11.4785 58.9717 11.9194 58.9717 12.4633C58.9717 13.0071 59.4126 13.448 59.9564 13.448Z" fill="#012D5B"/>
<path d="M62.746 16.2361C63.2912 16.2361 63.7332 15.7941 63.7332 15.2489C63.7332 14.7037 63.2912 14.2617 62.746 14.2617C62.2008 14.2617 61.7588 14.7037 61.7588 15.2489C61.7588 15.7941 62.2008 16.2361 62.746 16.2361Z" fill="#012D5B"/>
<path d="M65.5331 19.0252C66.0783 19.0252 66.5203 18.5832 66.5203 18.038C66.5203 17.4928 66.0783 17.0508 65.5331 17.0508C64.9879 17.0508 64.5459 17.4928 64.5459 18.038C64.5459 18.5832 64.9879 19.0252 65.5331 19.0252Z" fill="#012D5B"/>
<path d="M69.0224 20.1293C68.9307 20.0375 68.8219 19.9647 68.7021 19.9151C68.5822 19.8654 68.4538 19.8398 68.3241 19.8398C68.1944 19.8398 68.0659 19.8654 67.9461 19.9151C67.8263 19.9647 67.7174 20.0375 67.6257 20.1293C67.4408 20.3144 67.3369 20.5653 67.3369 20.827C67.3369 21.0887 67.4408 21.3396 67.6257 21.5247C67.8115 21.7089 68.0625 21.8122 68.3241 21.8122C68.5857 21.8122 68.8366 21.7089 69.0224 21.5247C69.2074 21.3396 69.3113 21.0887 69.3113 20.827C69.3113 20.5653 69.2074 20.3144 69.0224 20.1293Z" fill="#012D5B"/>
</svg>
